<?xml version="1.0" encoding="UTF-8" standalone="no"?>
<svg
   xmlns:dc="http://purl.org/dc/elements/1.1/"
   xmlns:cc="http://creativecommons.org/ns#"
   xmlns:rdf="http://www.w3.org/1999/02/22-rdf-syntax-ns#"
   xmlns:svg="http://www.w3.org/2000/svg"
   xmlns="http://www.w3.org/2000/svg"
   xmlns:sodipodi="http://sodipodi.sourceforge.net/DTD/sodipodi-0.dtd"
   xmlns:inkscape="http://www.inkscape.org/namespaces/inkscape"
   width="229.98288mm"
   height="241.90439mm"
   viewBox="0 0 229.98288 241.90439"
   version="1.1"
   id="svg8"
   inkscape:version="1.0.1 (3bc2e813f5, 2020-09-07)"
   sodipodi:docname="QSimov2.svg">
  <title
     id="title4576">QSimov Logo</title>
  <defs
     id="defs2" />
  <sodipodi:namedview
     id="base"
     pagecolor="#ffffff"
     bordercolor="#666666"
     borderopacity="1.0"
     inkscape:pageopacity="0.0"
     inkscape:pageshadow="2"
     inkscape:zoom="0.24748738"
     inkscape:cx="-907.5941"
     inkscape:cy="727.65089"
     inkscape:document-units="mm"
     inkscape:current-layer="layer1"
     showgrid="false"
     showguides="true"
     inkscape:guide-bbox="true"
     inkscape:window-width="1920"
     inkscape:window-height="1017"
     inkscape:window-x="-8"
     inkscape:window-y="-8"
     inkscape:window-maximized="1"
     inkscape:document-rotation="0"
     fit-margin-top="0"
     fit-margin-left="0"
     fit-margin-right="0"
     fit-margin-bottom="0">
    <inkscape:grid
       type="xygrid"
       id="grid4534"
       originx="-308.3419"
       originy="-397.33441" />
    <sodipodi:guide
       position="114.99144,-73.511207"
       orientation="1,0"
       id="guide4538"
       inkscape:locked="false" />
  </sodipodi:namedview>
  <metadata
     id="metadata5">
    <rdf:RDF>
      <cc:Work
         rdf:about="">
        <dc:format>image/svg+xml</dc:format>
        <dc:type
           rdf:resource="http://purl.org/dc/dcmitype/StillImage" />
        <dc:title>QSimov Logo</dc:title>
      </cc:Work>
    </rdf:RDF>
  </metadata>
  <g
     inkscape:label="Capa 1"
     inkscape:groupmode="layer"
     id="layer1"
     transform="translate(-308.34189,494.6656)">
    <path
       style="fill:#000000;stroke:#000000;stroke-width:1.14419"
       d="M 423.33333,-482.17199 A 114.41933,114.41933 0 0 0 308.91399,-367.75264 114.41933,114.41933 0 0 0 423.33333,-253.3333 Z"
       id="path4545"
       inkscape:export-xdpi="490.50748"
       inkscape:export-ydpi="490.50748"
       inkscape:connector-curvature="0" />
    <path
       style="fill:#ffffff;stroke:#000000;stroke-width:1.14419"
       d="m 503.42686,-493.61392 -30.21384,22.60453 -0.31959,0.23913 a 114.41933,114.41933 0 0 0 -49.5601,-11.40173 v 228.83869 a 114.41933,114.41933 0 0 0 114.41935,-114.41934 114.41933,114.41933 0 0 0 -28.28081,-75.18826 l -1.57549,-13.20515 z"
       id="path4551-7"
       inkscape:connector-curvature="0" />
    <path
       sodipodi:type="star"
       style="fill:#000000;stroke:#000000;stroke-width:1.14419"
       id="path4551"
       sodipodi:sides="3"
       sodipodi:cx="360.40262"
       sodipodi:cy="-453.56699"
       sodipodi:r1="43.569584"
       sodipodi:r2="21.784794"
       sodipodi:arg1="-1.9756881"
       sodipodi:arg2="-0.92849056"
       inkscape:flatsided="false"
       inkscape:rounded="0"
       inkscape:randomized="0"
       d="m 343.23972,-493.61375 30.21293,22.60332 30.21294,22.60332 -34.68152,14.86351 -34.68152,14.8635 4.46858,-37.46682 z"
       inkscape:transform-center-x="-8.5814393"
       inkscape:transform-center-y="-2.5799172"
       inkscape:export-xdpi="490.50748"
       inkscape:export-ydpi="490.50748" />
    <text
       xml:space="preserve"
       style="font-style:normal;font-weight:normal;font-size:10.5833px;line-height:1.25;font-family:sans-serif;letter-spacing:0px;word-spacing:0px;fill:#ffffff;fill-opacity:1;stroke:none;stroke-width:0.264583"
       x="232.83333"
       y="-491.45834"
       id="text828" />
    <path
       inkscape:connector-curvature="0"
       id="path859"
       style="font-style:normal;font-variant:normal;font-weight:normal;font-stretch:normal;font-size:90.3111px;line-height:1.25;font-family:'JP Hand';-inkscape-font-specification:'JP Hand';letter-spacing:0px;word-spacing:0px;fill:#ffffff;fill-opacity:1;stroke:none;stroke-width:0.264583"
       d="m 389.39831,-387.89887 q 0,1.89653 -0.0903,2.79964 -0.0903,0.8128 -0.63218,2.34809 -0.36124,2.79965 -1.6256,7.13458 -0.63218,2.16747 -1.26435,4.33493 -0.72249,0.8128 -1.44498,2.61903 -0.72249,1.80622 -0.99342,2.25777 -3.16089,4.15431 -6.32178,8.30863 -0.90311,0.72248 -0.90311,2.25777 0,0.63218 0.45155,2.98027 0.18063,0.90311 0.18063,1.71591 0.36124,1.80622 1.98684,3.43182 0.45156,-0.45155 0.8128,-0.45155 0.45156,0 0.54187,0.45155 -0.8128,0.99343 -0.8128,1.35467 -0.8128,1.98684 -2.98027,1.98684 l -0.45156,-0.0903 q -2.07715,-1.53529 -2.07715,-4.24462 -0.45156,-0.63218 -0.54187,-3.07058 -0.0903,-2.34809 -1.17404,-2.88995 -1.6256,1.17404 -4.69618,2.52871 -4.8768,2.07715 -5.32836,2.34809 h -2.16746 q -1.53529,0 -2.70934,-0.36125 -1.17404,-0.27093 -1.98684,-1.35466 -1.6256,-2.52871 -1.6256,-5.77991 0,-1.80623 0.18062,-2.79965 0.18062,-1.08373 0.90311,-4.15431 l 0.54187,-0.36124 1.80622,-5.96054 2.07716,-3.88338 q 0.27093,-0.90311 0.54186,-1.80622 l 1.89654,-2.52871 q 0,-0.45155 -0.18062,-1.80622 -0.18063,-1.35467 -0.18063,-2.16747 2.07716,-7.13458 6.5024,-12.91449 3.34151,-3.79306 6.86365,-6.5024 l 6.68302,-2.4384 q 0.27093,0.27094 0.90311,0.54187 0.63218,0.18062 1.26436,0.45156 2.79964,1.17404 4.33493,5.87022 0.99342,3.34151 1.44498,4.8768 z m -2.07715,1.44498 -0.27094,-3.2512 q 0,-1.6256 -0.27093,-2.98027 -0.27093,-1.35467 -0.72249,-2.61902 0.27093,-1.26436 -0.90311,-2.52871 -1.17405,-1.26436 -2.25778,-2.52871 -1.08373,-0.99343 -2.98027,-0.99343 -2.16746,0 -3.88337,0.99343 -1.71591,0.99342 -3.16089,2.16746 -2.52871,1.89654 -4.33494,4.064 -0.8128,0.99342 -1.26435,1.80622 -1.6256,2.70934 -1.80622,2.98027 l -0.63218,5.14773 q 0.45155,0.27094 0.90311,-0.36124 1.53529,-1.80622 1.89653,-1.98684 l 0.90311,-0.45156 q 0.27094,0 0.45156,0.18062 0,0.18062 0.0903,0.27094 0.18062,0.99342 -0.45155,2.4384 -0.63218,1.44497 -0.63218,2.25777 -0.36125,1.17405 -0.90311,1.80623 -0.72249,0 -0.99343,-0.27094 -0.18062,-0.27093 -0.45155,-0.63218 -0.18062,0.18063 -0.36125,0.36125 l 0.99343,1.80622 q 0.72249,1.80622 1.71591,3.2512 1.08373,1.44498 2.61902,2.52871 2.16747,1.80622 3.43182,5.23805 0.90311,2.4384 1.53529,6.5024 0,1.08373 0.36125,1.08373 h 0.36124 q 1.08373,-0.72249 2.34809,-2.16747 1.26435,-1.53529 1.80622,-2.25777 0.63218,-0.8128 1.98685,-3.34152 1.08373,-1.89653 1.80622,-2.70933 0.0903,-0.27093 0.72249,-3.52213 0.36124,-1.89654 0.90311,-2.98027 0.54186,-2.4384 0.99342,-4.8768 0.45156,-2.4384 0.45156,-4.42524 z m -15.4432,28.448 q 0,-4.78649 -3.07058,-9.30205 -2.98027,-3.88338 -5.87022,-7.76675 -0.18063,-0.0903 -0.45156,-0.54187 -1.08373,0.18062 -1.71591,1.53529 -0.99342,1.98684 -1.17405,2.16747 0,0.63217 -0.54186,1.6256 -0.45156,0.99342 -0.45156,1.6256 -1.98684,3.34151 -1.98684,7.94737 0,0.99343 0,1.6256 0.0903,0.54187 0.36124,2.52871 0.63218,0.99343 1.71591,1.71592 1.08374,0.8128 2.70934,1.53528 3.43182,-0.72248 5.96053,-1.80622 2.52871,-1.08373 4.51556,-2.88995 z" />
    <path
       inkscape:connector-curvature="0"
       id="path861"
       style="font-style:normal;font-variant:normal;font-weight:normal;font-stretch:normal;font-size:90.3111px;line-height:1.25;font-family:'JP Hand';-inkscape-font-specification:'JP Hand';letter-spacing:0px;word-spacing:0px;fill:#ffffff;fill-opacity:1;stroke:none;stroke-width:0.264583"
       d="m 409.78181,-358.909 q 0,1.17404 -0.18062,1.71591 -0.0903,0.54186 -0.63218,1.44497 l -3.07058,3.61245 -5.23804,1.71591 -0.8128,-0.0903 q -0.45156,-0.36125 -2.4384,-1.08373 -1.98684,-0.72249 -2.34809,-1.71592 0,-2.52871 2.07716,-3.34151 0.45155,0.90311 1.71591,1.6256 1.26435,0.8128 1.89653,1.17405 2.70933,0 4.15431,-0.27094 1.44498,-0.27093 2.4384,-1.6256 0.18062,-0.72248 -0.18062,-1.71591 -0.27093,-0.99342 -0.27093,-1.44497 -0.90311,-2.52872 -2.70934,-5.87023 -1.44497,-2.61902 -1.71591,-3.2512 v -0.63217 q -1.08373,-2.16747 -1.89653,-4.78649 -0.72249,-2.61903 -0.72249,-5.05743 0,-2.4384 0.63218,-4.15431 0.72249,-1.80622 1.35466,-3.52213 0.72249,-1.71591 1.98685,-2.70933 0.72249,-0.27094 1.35467,0.0903 0.72248,0.27093 1.44497,0.90311 0,1.17404 0.18063,1.35467 0.27093,0 0.54186,0 1.17405,1.17404 1.17405,3.07057 0,1.17405 -0.54187,2.16747 l -1.08373,0.45156 q -0.0903,-0.90312 -0.27094,-1.17405 -0.90311,-1.44498 -1.35466,-2.07715 -0.90311,-1.26436 -2.07716,-1.26436 -0.45155,0 -1.17404,0.54187 -0.8128,1.80622 -0.8128,3.88337 0,2.98027 1.53529,5.87023 -0.0903,0 -0.18063,0.27093 0,0.18062 -0.0903,0.36124 1.08374,2.07716 2.4384,4.24463 2.16747,3.52213 4.42525,7.04426 0.0903,0.54187 0.27093,2.07716 0.18062,1.53529 0.18062,2.16747 z" />
    <path
       style="font-style:normal;font-variant:normal;font-weight:normal;font-stretch:normal;font-size:90.3111px;line-height:1.25;font-family:'JP Hand';-inkscape-font-specification:'JP Hand';letter-spacing:0px;word-spacing:0px;fill:#000000;fill-opacity:1;stroke:none;stroke-width:0.264583"
       d="m 431.18837,-382.57052 q -0.72249,1.6256 -2.52871,1.6256 l -3.79307,-3.97368 v -0.54187 l 1.80622,-2.34809 1.17405,-0.0903 0.63218,1.35467 q 1.53529,0.45155 2.16746,1.17404 0.63218,0.72249 0.63218,1.80622 0,0.63218 -0.0903,0.99342 z"
       id="path899" />
    <path
       style="font-style:normal;font-variant:normal;font-weight:normal;font-stretch:normal;font-size:90.3111px;line-height:1.25;font-family:'JP Hand';-inkscape-font-specification:'JP Hand';letter-spacing:0px;word-spacing:0px;fill:#ffffff;fill-opacity:1;stroke:none;stroke-width:0.264583"
       d="m 424.05379,-355.02563 q -1.17404,1.98685 -3.43182,2.98027 -1.08373,0.45156 -4.51556,1.26436 h -0.99342 q -0.36124,-0.18063 -0.8128,-0.63218 -0.0903,-0.0903 -1.44498,-1.71591 -0.18062,-0.72249 -0.27093,-1.44498 -0.0903,-0.63218 -0.0903,-1.17405 0,-3.16088 2.07716,-7.13457 1.80622,-3.16089 3.61244,-6.32178 0.63218,-0.18062 1.17404,-0.72249 0.54187,-0.54187 0.90312,-0.72249 l 0.45155,1.6256 -2.61902,4.064 q -0.54187,0.54187 -0.54187,1.89653 -1.35466,2.4384 -1.35466,5.14774 0,1.44498 0.18062,2.16746 0.54186,1.35467 1.17404,1.6256 l 2.88996,0.27094 z"
       id="path863" />
    <path
       inkscape:connector-curvature="0"
       id="path865"
       style="font-style:normal;font-variant:normal;font-weight:normal;font-stretch:normal;font-size:90.3111px;line-height:1.25;font-family:'JP Hand';-inkscape-font-specification:'JP Hand';letter-spacing:0px;word-spacing:0px;fill:#000000;fill-opacity:1;stroke:none;stroke-width:0.264583"
       d="m 459.23139,-355.02563 q -0.63217,1.08374 -2.07715,2.07716 -1.35467,0.99342 -2.98027,1.80622 -0.36124,0.0903 -1.80622,0.54187 -1.35467,0.45155 -2.07716,0.45155 -0.90311,0 -1.53529,-0.72249 v -4.78648 l 1.71592,-4.60587 -2.70934,2.16747 q -0.63218,0.27093 -5.05742,2.70933 -2.88996,1.6256 -5.32836,1.6256 -0.72248,-0.0903 -1.08373,-0.0903 -0.0903,-0.18062 -0.0903,-0.72249 0.0903,-0.54187 0.18062,-1.08373 l 2.52871,-5.6896 h -0.36124 l -4.15431,3.70275 q -3.07058,1.89653 -5.14774,3.88338 -0.54186,0 -1.80622,0.45155 -1.26435,0.54187 -1.6256,0.54187 -0.54186,0 -0.90311,-0.36124 0,-0.36125 0.45156,-0.72249 0.45155,-0.36125 0.45155,-0.63218 0,-0.36124 -0.63218,-0.63218 -0.54186,0.63218 -2.16746,1.17405 -1.6256,0.63217 -2.16747,1.08373 l -1.08373,-1.26436 5.14773,-2.52871 q 0,-0.18062 0.0903,-0.36124 0.18062,-0.27093 0.36125,-0.54187 l 4.69617,-5.50898 q 0.63218,-0.90311 1.26436,-1.89653 0.63218,-0.99342 0.90311,-2.25778 0.36125,-1.26435 2.34809,-0.90311 l 0.54187,0.90311 -3.88338,9.66329 q 0.18062,0.54187 0.36124,0.54187 l 2.07716,-2.25778 3.61244,-2.79964 q 2.4384,-1.80623 2.70934,-1.98685 1.80622,-1.08373 3.52213,-0.90311 l 0.27093,0.45156 -2.79964,8.76017 6.77333,-4.60586 1.17405,-1.71591 q 0.99342,-0.36125 1.08373,-0.99343 l 3.07058,-4.42524 q 0.99342,-0.99342 2.34809,-0.36124 0.0903,0.54186 0.0903,1.53528 0,1.71592 -0.63218,3.79307 -1.71591,5.59929 -1.80622,6.23147 l -0.45156,0.63218 q 0,0.45155 -0.27093,1.26435 -0.18062,0.90311 -0.18062,0.99342 0,0.45156 0.36124,0.72249 0.27093,0.27094 0.8128,0 0.54187,-0.18062 0.8128,-0.18062 l 3.43182,-2.61902 z" />
    <path
       inkscape:connector-curvature="0"
       id="path867"
       style="font-style:normal;font-variant:normal;font-weight:normal;font-stretch:normal;font-size:90.3111px;line-height:1.25;font-family:'JP Hand';-inkscape-font-specification:'JP Hand';letter-spacing:0px;word-spacing:0px;fill:#000000;fill-opacity:1;stroke:none;stroke-width:0.264583"
       d="m 479.81102,-364.05674 q 0,2.98027 -0.72249,5.50898 -0.63217,2.4384 -2.16746,4.33493 l -0.99343,-0.0903 q -1.44497,1.08374 -2.70933,1.71591 -1.26435,0.63218 -3.07058,1.44498 -2.16746,0.63218 -3.70275,0.99342 -1.44498,0.45156 -2.52871,0.27094 -0.45156,-0.63218 -0.72249,-0.90311 -0.8128,-0.90312 -1.44498,-0.8128 -0.54187,-0.99343 -0.54187,-1.89654 0,-0.45155 0.45156,-2.52871 0.18062,-0.8128 0.18062,-1.6256 1.89653,-3.61244 2.52871,-4.8768 1.35467,-2.52871 2.70934,-4.51555 1.26435,-1.44498 2.07715,-2.34809 1.35467,-1.44498 2.4384,-2.4384 v -1.53529 q 0.63218,-1.35467 1.80622,-2.25778 1.17405,-0.99342 2.70934,-0.99342 l 1.98684,2.61902 q -0.0903,0.99342 0.63218,2.88996 0.8128,1.80622 0.8128,3.07057 z m -3.70275,-0.0903 q 0,-3.97369 -1.26436,-7.76675 -1.44498,1.44497 -3.07058,3.52213 -1.26435,1.6256 -2.98026,4.15431 -0.27094,0.45156 -0.99343,1.35467 -0.72248,0.8128 -0.90311,1.44497 0.0903,0.18063 -0.27093,0.63218 -0.27093,0.36125 -0.63218,0.8128 l -0.90311,5.77991 q 0,0.72249 0.54187,1.08374 0.54186,0.36124 1.26435,0.36124 l 3.16089,0.0903 3.88338,-1.80622 q 2.16747,-4.24462 2.16747,-9.66329 z" />
    <path
       inkscape:connector-curvature="0"
       id="path869"
       style="font-style:normal;font-variant:normal;font-weight:normal;font-stretch:normal;font-size:90.3111px;line-height:1.25;font-family:'JP Hand';-inkscape-font-specification:'JP Hand';letter-spacing:0px;word-spacing:0px;fill:#000000;fill-opacity:1;stroke:none;stroke-width:0.264583"
       d="m 508.0784,-375.25532 -0.54186,0.90312 q -2.70934,2.07715 -5.23805,5.23804 -2.79964,3.79307 -4.15431,5.41867 -1.17404,0.36124 -2.07715,1.44497 -0.27094,0.36125 -2.34809,4.15432 -2.4384,3.16088 -3.79307,4.78648 -2.4384,2.98027 -4.60587,4.42525 h -0.36124 q -0.90311,-1.08373 -0.45156,-2.25778 l -0.18062,-2.70933 q 0,-2.4384 0.54187,-7.40551 0.54187,-4.96711 0.54187,-7.40551 0.36124,-0.99343 0.8128,-1.71592 0.45155,-0.72248 0.99342,-0.72248 0.45155,0 0.99342,0.54186 0.27093,0.72249 0.54187,1.35467 l -0.63218,14.72071 q 2.70933,-2.61902 4.69618,-5.14773 2.07715,-2.52871 3.2512,-4.96711 l 1.80622,-1.26436 2.70933,-3.34151 q 0.8128,-0.8128 2.4384,-2.52871 2.52871,-2.70934 4.51556,-3.79307 0.54186,-0.0903 0.54186,0.27093 z" />
  </g>
</svg>
