<?xml version="1.0" encoding="UTF-8" standalone="no"?>
<svg
   xmlns:dc="http://purl.org/dc/elements/1.1/"
   xmlns:cc="http://creativecommons.org/ns#"
   xmlns:rdf="http://www.w3.org/1999/02/22-rdf-syntax-ns#"
   xmlns:svg="http://www.w3.org/2000/svg"
   xmlns="http://www.w3.org/2000/svg"
   xmlns:sodipodi="http://sodipodi.sourceforge.net/DTD/sodipodi-0.dtd"
   xmlns:inkscape="http://www.inkscape.org/namespaces/inkscape"
   width="209.35834mm"
   height="69.791687mm"
   viewBox="0 0 209.35834 69.791687"
   version="1.1"
   id="svg8"
   inkscape:version="1.0.1 (3bc2e813f5, 2020-09-07)"
   sodipodi:docname="teleportation2.svg">
  <defs
     id="defs2" />
  <sodipodi:namedview
     id="base"
     pagecolor="#ffffff"
     bordercolor="#666666"
     borderopacity="1.0"
     inkscape:pageopacity="0.0"
     inkscape:pageshadow="2"
     inkscape:zoom="0.49497475"
     inkscape:cx="1020.0796"
     inkscape:cy="308.192"
     inkscape:document-units="mm"
     inkscape:current-layer="layer1"
     showgrid="true"
     showguides="false"
     inkscape:window-width="1920"
     inkscape:window-height="1017"
     inkscape:window-x="-8"
     inkscape:window-y="-8"
     inkscape:window-maximized="1"
     inkscape:document-rotation="0"
     fit-margin-top="0"
     fit-margin-left="0"
     fit-margin-right="0"
     fit-margin-bottom="0">
    <inkscape:grid
       type="xygrid"
       id="grid815"
       originx="-553.51561"
       originy="-95.770875" />
  </sodipodi:namedview>
  <metadata
     id="metadata5">
    <rdf:RDF>
      <cc:Work
         rdf:about="">
        <dc:format>image/svg+xml</dc:format>
        <dc:type
           rdf:resource="http://purl.org/dc/dcmitype/StillImage" />
        <dc:title></dc:title>
      </cc:Work>
    </rdf:RDF>
  </metadata>
  <g
     inkscape:label="Capa 1"
     inkscape:groupmode="layer"
     id="layer1"
     transform="translate(-553.51562,796.22913)">
    <path
       style="fill:none;stroke:#000000;stroke-width:1.5;stroke-linecap:butt;stroke-linejoin:miter;stroke-miterlimit:4;stroke-dasharray:none;stroke-opacity:1"
       d="M 576.79166,-787.79163 H 642.9375"
       id="path817"
       inkscape:connector-curvature="0" />
    <path
       style="fill:none;stroke:#000000;stroke-width:1.5;stroke-linecap:butt;stroke-linejoin:miter;stroke-miterlimit:4;stroke-dasharray:none;stroke-opacity:1"
       d="M 576.79167,-761.3333 H 642.9375"
       id="path817-8"
       inkscape:connector-curvature="0" />
    <path
       style="fill:none;stroke:#000000;stroke-width:1.5;stroke-linecap:butt;stroke-linejoin:miter;stroke-miterlimit:4;stroke-dasharray:none;stroke-opacity:1"
       d="M 576.79167,-734.87497 H 724.95833"
       id="path817-84"
       inkscape:connector-curvature="0" />
    <circle
       style="fill:#ffffff;fill-opacity:1;stroke:#000000;stroke-width:1.5;stroke-miterlimit:4;stroke-dasharray:none;stroke-opacity:1"
       id="path840"
       cx="603.25"
       cy="-761.33331"
       r="5.2916665" />
    <circle
       style="fill:#000000;fill-opacity:1;stroke:none;stroke-width:1.5;stroke-miterlimit:4;stroke-dasharray:none;stroke-opacity:1"
       id="path842"
       cx="603.25"
       cy="-787.79163"
       r="2.6458333" />
    <path
       style="fill:none;stroke:#000000;stroke-width:1;stroke-linecap:butt;stroke-linejoin:miter;stroke-miterlimit:4;stroke-dasharray:none;stroke-opacity:1"
       d="m 603.24999,-785.1458 v 29.10417"
       id="path844"
       inkscape:connector-curvature="0" />
    <path
       style="fill:none;stroke:#000000;stroke-width:1;stroke-linecap:butt;stroke-linejoin:miter;stroke-miterlimit:4;stroke-dasharray:none;stroke-opacity:1"
       d="m 597.95833,-761.3333 h 10.58333"
       id="path846"
       inkscape:connector-curvature="0" />
    <rect
       style="fill:#ffffff;fill-opacity:1;stroke:#000000;stroke-width:1;stroke-miterlimit:4;stroke-dasharray:none;stroke-opacity:1"
       id="rect848"
       width="15.875"
       height="15.875"
       x="616.47919"
       y="-795.72913" />
    <text
       xml:space="preserve"
       style="font-style:normal;font-weight:normal;font-size:10.5833px;line-height:1.25;font-family:sans-serif;letter-spacing:0px;word-spacing:0px;fill:#000000;fill-opacity:1;stroke:none;stroke-width:0.264583"
       x="620.46136"
       y="-784.29022"
       id="text852"><tspan
         sodipodi:role="line"
         id="tspan850"
         x="620.46136"
         y="-784.29022"
         style="stroke-width:0.264583">H</tspan></text>
    <rect
       style="fill:#ffffff;fill-opacity:1;stroke:#000000;stroke-width:1;stroke-miterlimit:4;stroke-dasharray:none;stroke-opacity:1"
       id="rect848-9"
       width="15.875"
       height="15.875"
       x="642.9375"
       y="-795.72913" />
    <path
       style="fill:#ffffff;fill-opacity:1;stroke:#000000;stroke-width:1;stroke-miterlimit:4;stroke-dasharray:none;stroke-opacity:1"
       d="m 650.875,-790.43747 a 5.2916663,5.2916663 0 0 0 -5.29167,5.29167 h 10.58334 a 5.2916663,5.2916663 0 0 0 -5.29167,-5.29167 z"
       id="path871"
       inkscape:connector-curvature="0" />
    <path
       style="fill:none;stroke:#000000;stroke-width:0.5;stroke-linecap:butt;stroke-linejoin:miter;stroke-miterlimit:4;stroke-dasharray:none;stroke-opacity:1"
       d="m 650.87499,-785.1458 -2.64583,-2.64583"
       id="path878"
       inkscape:connector-curvature="0" />
    <rect
       style="fill:#ffffff;fill-opacity:1;stroke:#000000;stroke-width:1;stroke-miterlimit:4;stroke-dasharray:none;stroke-opacity:1"
       id="rect848-9-9"
       width="15.875"
       height="15.875"
       x="642.9375"
       y="-769.27081" />
    <path
       style="fill:#ffffff;fill-opacity:1;stroke:#000000;stroke-width:1;stroke-miterlimit:4;stroke-dasharray:none;stroke-opacity:1"
       d="m 650.87501,-763.97914 a 5.2916664,5.2916664 0 0 0 -5.29167,5.29167 h 10.58334 a 5.2916664,5.2916664 0 0 0 -5.29167,-5.29167 z"
       id="path871-2"
       inkscape:connector-curvature="0" />
    <path
       style="fill:none;stroke:#000000;stroke-width:0.5;stroke-linecap:butt;stroke-linejoin:miter;stroke-miterlimit:4;stroke-dasharray:none;stroke-opacity:1"
       d="m 650.875,-758.68747 -2.64583,-2.64583"
       id="path878-4"
       inkscape:connector-curvature="0" />
    <path
       style="fill:none;stroke:#000000;stroke-width:1;stroke-linecap:butt;stroke-linejoin:miter;stroke-miterlimit:4;stroke-dasharray:none;stroke-opacity:1"
       d="m 658.81249,-762.65622 h 66.14583"
       id="path901"
       inkscape:connector-curvature="0" />
    <path
       style="fill:none;stroke:#000000;stroke-width:1;stroke-linecap:butt;stroke-linejoin:miter;stroke-miterlimit:4;stroke-dasharray:none;stroke-opacity:1"
       d="m 658.81249,-760.01038 h 66.14583"
       id="path903"
       inkscape:connector-curvature="0" />
    <path
       style="fill:none;stroke:#000000;stroke-width:1;stroke-linecap:butt;stroke-linejoin:miter;stroke-miterlimit:4;stroke-dasharray:none;stroke-opacity:1"
       d="m 658.8125,-789.11455 h 66.14583"
       id="path901-5"
       inkscape:connector-curvature="0" />
    <path
       style="fill:none;stroke:#000000;stroke-width:1;stroke-linecap:butt;stroke-linejoin:miter;stroke-miterlimit:4;stroke-dasharray:none;stroke-opacity:1"
       d="m 658.8125,-786.46871 h 66.14583"
       id="path903-7"
       inkscape:connector-curvature="0" />
    <circle
       style="fill:#ffffff;fill-opacity:1;stroke:#000000;stroke-width:1.5;stroke-miterlimit:4;stroke-dasharray:none;stroke-opacity:1"
       id="path840-2"
       cx="674.68756"
       cy="-734.875"
       r="5.2916665" />
    <circle
       style="fill:#000000;fill-opacity:1;stroke:none;stroke-width:1.5;stroke-miterlimit:4;stroke-dasharray:none;stroke-opacity:1"
       id="path842-8"
       cx="674.68756"
       cy="-761.33331"
       r="2.6458333" />
    <path
       style="fill:none;stroke:#000000;stroke-width:1;stroke-linecap:butt;stroke-linejoin:miter;stroke-miterlimit:4;stroke-dasharray:none;stroke-opacity:1"
       d="m 674.68749,-758.68747 v 29.10417"
       id="path844-5"
       inkscape:connector-curvature="0" />
    <path
       style="fill:none;stroke:#000000;stroke-width:1;stroke-linecap:butt;stroke-linejoin:miter;stroke-miterlimit:4;stroke-dasharray:none;stroke-opacity:1"
       d="m 669.39583,-734.87497 h 10.58334"
       id="path846-4"
       inkscape:connector-curvature="0" />
    <circle
       style="fill:#000000;fill-opacity:1;stroke:none;stroke-width:1.5;stroke-miterlimit:4;stroke-dasharray:none;stroke-opacity:1"
       id="path842-1"
       cx="699.89014"
       cy="-787.56537"
       r="2.6458333" />
    <path
       style="fill:none;stroke:#000000;stroke-width:1;stroke-linecap:butt;stroke-linejoin:miter;stroke-miterlimit:4;stroke-dasharray:none;stroke-opacity:1"
       d="m 699.82292,-785.1458 v 42.33333"
       id="path844-3"
       inkscape:connector-curvature="0" />
    <rect
       style="fill:#ffffff;fill-opacity:1;stroke:#000000;stroke-width:1;stroke-miterlimit:4;stroke-dasharray:none;stroke-opacity:1"
       id="rect848-7"
       width="15.875"
       height="15.875"
       x="691.88544"
       y="-742.81244" />
    <text
       xml:space="preserve"
       style="font-style:normal;font-weight:normal;font-size:10.5833px;line-height:1.25;font-family:sans-serif;letter-spacing:0px;word-spacing:0px;fill:#000000;fill-opacity:1;stroke:none;stroke-width:0.264583"
       x="695.86761"
       y="-731.37354"
       id="text852-0"><tspan
         sodipodi:role="line"
         id="tspan850-7"
         x="695.86761"
         y="-731.37354"
         style="stroke-width:0.264583">Z</tspan></text>
    <g
       aria-label="|Ψ⟩"
       style="font-style:normal;font-weight:normal;font-size:10.5833px;line-height:1.25;font-family:sans-serif;letter-spacing:0px;word-spacing:0px;fill:#000000;fill-opacity:1;stroke:none;stroke-width:0.264583"
       id="text982">
      <path
         d="m 554.41479,-783.37388 h -0.89917 v -10.06657 h 0.89917 z"
         style="stroke-width:0.264583"
         id="path1023" />
      <path
         d="m 564.6674,-790.10215 q 0,0.81132 -0.21187,1.36942 -0.20671,0.55294 -0.60462,0.89917 -0.41341,0.35657 -0.99735,0.53744 -0.57878,0.18087 -1.35909,0.23254 v 1.66398 h -1.01803 v -1.66398 q -0.79582,-0.0568 -1.37976,-0.24288 -0.58394,-0.18603 -0.97152,-0.5271 -0.40307,-0.35656 -0.61495,-0.9095 -0.2067,-0.55294 -0.2067,-1.35909 v -2.99207 h 1.02319 v 3.11092 q 0,0.56328 0.14986,0.93018 0.15503,0.3669 0.42375,0.59428 0.27388,0.23254 0.67179,0.35657 0.39791,0.11885 0.90434,0.15502 v -5.14697 h 1.01803 v 5.14697 q 0.50126,-0.0413 0.90433,-0.15502 0.40308,-0.11886 0.67696,-0.35657 0.28939,-0.25322 0.42892,-0.59428 0.13953,-0.34623 0.13953,-0.93018 v -3.11092 h 1.02319 z"
         style="stroke-width:0.264583"
         id="path1025" />
      <path
         d="m 566.69828,-792.82033 2.06189,4.64054 v 0.38241 l -2.06189,4.64571 -0.55294,-0.19637 1.65882,-4.64055 -1.65882,-4.64571 z"
         style="stroke-width:0.264583"
         id="path1027" />
    </g>
    <g
       aria-label="|Φ⟩"
       style="font-style:normal;font-weight:normal;font-size:10.5833px;line-height:1.25;font-family:sans-serif;letter-spacing:0px;word-spacing:0px;fill:#000000;fill-opacity:1;stroke:none;stroke-width:0.264583"
       id="text982-6">
      <path
         d="m 554.45447,-744.1793 h -0.89917 v -10.06657 h 0.89917 z"
         style="stroke-width:0.264583"
         id="path1016" />
      <path
         d="m 564.54171,-750.10659 q 0,0.72347 -0.23255,1.28675 -0.22737,0.5581 -0.63562,0.93534 -0.43925,0.40824 -1.0697,0.65112 -0.63045,0.23771 -1.34359,0.25322 v 0.85783 h -1.01802 v -0.85783 q -0.69247,-0.0155 -1.32809,-0.24805 -0.63562,-0.23254 -1.0852,-0.65629 -0.40825,-0.38241 -0.64079,-0.94051 -0.22738,-0.55811 -0.22738,-1.28158 0,-0.7028 0.22221,-1.2299 0.22221,-0.5271 0.61495,-0.91984 0.41858,-0.41858 1.04387,-0.66146 0.63045,-0.24287 1.40043,-0.26355 v -0.80098 h 1.01802 v 0.80098 q 0.76481,0.0155 1.40043,0.26872 0.63562,0.25322 1.04387,0.65629 0.38757,0.37724 0.60978,0.91468 0.22738,0.53743 0.22738,1.23506 z m -1.06454,-0.0413 q 0,-0.5116 -0.16536,-0.94051 -0.16537,-0.42891 -0.47026,-0.72347 -0.29972,-0.28939 -0.66662,-0.42375 -0.36691,-0.13436 -0.91468,-0.14469 v 4.5992 q 0.48576,-0.0103 0.88367,-0.15503 0.39791,-0.14986 0.65629,-0.39274 0.3359,-0.31006 0.50643,-0.75964 0.17053,-0.44959 0.17053,-1.05937 z m -3.23494,2.36678 v -4.5992 q -0.54777,0.005 -0.91468,0.14469 -0.3669,0.13953 -0.66662,0.42375 -0.29972,0.28422 -0.47026,0.72347 -0.16536,0.43925 -0.16536,0.94051 0,0.57878 0.17053,1.04903 0.1757,0.47026 0.50643,0.76998 0.25321,0.23255 0.65112,0.38757 0.40308,0.15503 0.88884,0.1602 z"
         style="stroke-width:0.264583"
         id="path1018" />
      <path
         d="m 566.17985,-753.62575 2.06189,4.64054 v 0.38241 l -2.06189,4.64571 -0.55294,-0.19637 1.65882,-4.64055 -1.65882,-4.64571 z"
         style="stroke-width:0.264583"
         id="path1020" />
    </g>
    <g
       aria-label="{"
       style="font-style:normal;font-weight:normal;font-size:10.5833px;line-height:1.25;font-family:sans-serif;letter-spacing:0px;word-spacing:0px;fill:#000000;fill-opacity:1;stroke:none;stroke-width:0.264583"
       id="text1004"
       transform="matrix(1,0,0,2.7597508,7.4776,1328.4117)">
      <path
         d="M 567.99115,-747.40135 H 567.216 q -0.925,0 -1.50378,-0.51676 -0.57361,-0.5116 -0.57361,-1.48311 v -0.76998 q 0,-0.87334 -0.42891,-1.36426 -0.42892,-0.4961 -1.31258,-0.4961 h -0.26355 v -0.80615 h 0.26355 q 0.88366,0 1.31258,-0.49092 0.42891,-0.4961 0.42891,-1.36943 v -0.76998 q 0,-0.97151 0.57361,-1.48311 0.57878,-0.51677 1.50378,-0.51677 h 0.77515 v 0.71314 h -0.58911 q -0.7028,0 -1.02319,0.32556 -0.31523,0.32556 -0.31523,1.04903 v 0.90434 q 0,0.7183 -0.39791,1.20923 -0.39791,0.48576 -1.10588,0.76998 v 0.12402 q 0.70797,0.28422 1.10588,0.77515 0.39791,0.48576 0.39791,1.20406 v 0.90434 q 0,0.72347 0.31523,1.04903 0.32039,0.32556 1.02319,0.32556 h 0.58911 z"
         style="stroke-width:0.264583"
         id="path1006"
         inkscape:connector-curvature="0" />
    </g>
    <g
       aria-label="+"
       style="font-style:normal;font-weight:normal;font-size:10.5833px;line-height:1.25;font-family:sans-serif;letter-spacing:0px;word-spacing:0px;fill:#000000;fill-opacity:1;stroke:none;stroke-width:0.264583"
       id="text1011">
      <path
         d="m 565.97573,-754.02645 h -1.31431 v 1.3143 h -0.40032 v -1.3143 h -1.3143 v -0.38585 h 1.3143 v -1.3143 h 0.40032 v 1.3143 h 1.31431 z"
         style="font-size:4.93889px;stroke-width:0.264583"
         id="path1013" />
    </g>
    <g
       transform="translate(176.69303,53.072285)"
       aria-label="|Ψ⟩"
       style="font-style:normal;font-weight:normal;font-size:10.5833px;line-height:1.25;font-family:sans-serif;letter-spacing:0px;word-spacing:0px;fill:#000000;fill-opacity:1;stroke:none;stroke-width:0.264583"
       id="text982-3">
      <path
         inkscape:connector-curvature="0"
         d="m 554.41479,-783.37388 h -0.89917 v -10.06657 h 0.89917 z"
         style="stroke-width:0.264583"
         id="path1023-9" />
      <path
         inkscape:connector-curvature="0"
         d="m 564.6674,-790.10215 q 0,0.81132 -0.21187,1.36942 -0.20671,0.55294 -0.60462,0.89917 -0.41341,0.35657 -0.99735,0.53744 -0.57878,0.18087 -1.35909,0.23254 v 1.66398 h -1.01803 v -1.66398 q -0.79582,-0.0568 -1.37976,-0.24288 -0.58394,-0.18603 -0.97152,-0.5271 -0.40307,-0.35656 -0.61495,-0.9095 -0.2067,-0.55294 -0.2067,-1.35909 v -2.99207 h 1.02319 v 3.11092 q 0,0.56328 0.14986,0.93018 0.15503,0.3669 0.42375,0.59428 0.27388,0.23254 0.67179,0.35657 0.39791,0.11885 0.90434,0.15502 v -5.14697 h 1.01803 v 5.14697 q 0.50126,-0.0413 0.90433,-0.15502 0.40308,-0.11886 0.67696,-0.35657 0.28939,-0.25322 0.42892,-0.59428 0.13953,-0.34623 0.13953,-0.93018 v -3.11092 h 1.02319 z"
         style="stroke-width:0.264583"
         id="path1025-3" />
      <path
         inkscape:connector-curvature="0"
         d="m 566.69828,-792.82033 2.06189,4.64054 v 0.38241 l -2.06189,4.64571 -0.55294,-0.19637 1.65882,-4.64055 -1.65882,-4.64571 z"
         style="stroke-width:0.264583"
         id="path1027-8" />
    </g>
    <text
       xml:space="preserve"
       style="font-style:normal;font-weight:normal;font-size:10.5833px;line-height:1.25;font-family:sans-serif;letter-spacing:0px;word-spacing:0px;fill:#000000;fill-opacity:1;stroke:none;stroke-width:0.264583"
       x="729.30505"
       y="-758.12048"
       id="text1056"><tspan
         sodipodi:role="line"
         id="tspan1054"
         x="729.30505"
         y="-758.12048"
         style="stroke-width:0.264583">{0, 1}</tspan></text>
    <text
       xml:space="preserve"
       style="font-style:normal;font-weight:normal;font-size:10.5833px;line-height:1.25;font-family:sans-serif;letter-spacing:0px;word-spacing:0px;fill:#000000;fill-opacity:1;stroke:none;stroke-width:0.264583"
       x="729.30505"
       y="-784.5788"
       id="text1056-1"><tspan
         sodipodi:role="line"
         id="tspan1054-0"
         x="729.30505"
         y="-784.5788"
         style="stroke-width:0.264583">{0, 1}</tspan></text>
  </g>
</svg>
