<?xml version="1.0" encoding="UTF-8" standalone="no"?>
<svg
   xmlns:dc="http://purl.org/dc/elements/1.1/"
   xmlns:cc="http://creativecommons.org/ns#"
   xmlns:rdf="http://www.w3.org/1999/02/22-rdf-syntax-ns#"
   xmlns:svg="http://www.w3.org/2000/svg"
   xmlns="http://www.w3.org/2000/svg"
   xmlns:sodipodi="http://sodipodi.sourceforge.net/DTD/sodipodi-0.dtd"
   xmlns:inkscape="http://www.inkscape.org/namespaces/inkscape"
   width="185.67516mm"
   height="47.889587mm"
   viewBox="0 0 185.67516 47.889587"
   version="1.1"
   id="svg8"
   inkscape:version="1.0.1 (3bc2e813f5, 2020-09-07)"
   sodipodi:docname="teleportacion.svg">
  <defs
     id="defs2" />
  <sodipodi:namedview
     id="base"
     pagecolor="#ffffff"
     bordercolor="#666666"
     borderopacity="1.0"
     inkscape:pageopacity="0.0"
     inkscape:pageshadow="2"
     inkscape:zoom="0.7"
     inkscape:cx="297.86082"
     inkscape:cy="39.510516"
     inkscape:document-units="mm"
     inkscape:current-layer="layer1"
     inkscape:document-rotation="0"
     showgrid="true"
     fit-margin-top="0"
     fit-margin-left="0"
     fit-margin-right="0"
     fit-margin-bottom="0"
     inkscape:window-width="1920"
     inkscape:window-height="1017"
     inkscape:window-x="-8"
     inkscape:window-y="-8"
     inkscape:window-maximized="1">
    <inkscape:grid
       type="xygrid"
       id="grid835"
       spacingx="0.26458333"
       spacingy="0.26458333"
       originx="-13.548079"
       originy="-63.367705" />
  </sodipodi:namedview>
  <metadata
     id="metadata5">
    <rdf:RDF>
      <cc:Work
         rdf:about="">
        <dc:format>image/svg+xml</dc:format>
        <dc:type
           rdf:resource="http://purl.org/dc/dcmitype/StillImage" />
        <dc:title></dc:title>
      </cc:Work>
    </rdf:RDF>
  </metadata>
  <g
     inkscape:label="Capa 1"
     inkscape:groupmode="layer"
     id="layer1"
     transform="translate(-13.548079,-63.367706)">
    <path
       style="fill:none;stroke:#000000;stroke-width:0.264583px;stroke-linecap:butt;stroke-linejoin:miter;stroke-opacity:1"
       d="m 64.822916,107.15625 h 23.8125"
       id="path861" />
    <path
       style="fill:none;stroke:#000000;stroke-width:0.264583px;stroke-linecap:butt;stroke-linejoin:miter;stroke-opacity:1"
       d="m 64.822916,93.92708 h 7.9375"
       id="path875" />
    <path
       style="fill:none;stroke:#000000;stroke-width:0.264583;stroke-linecap:butt;stroke-linejoin:miter;stroke-miterlimit:4;stroke-dasharray:1.05833, 0.529166;stroke-dashoffset:0;stroke-opacity:1"
       d="m 72.760416,93.927081 3.96875,-13.229167"
       id="path877" />
    <path
       style="fill:none;stroke:#000000;stroke-width:0.264583px;stroke-linecap:butt;stroke-linejoin:miter;stroke-opacity:1"
       d="m 76.729166,80.697914 h 7.9375"
       id="path879" />
    <text
       xml:space="preserve"
       style="font-style:normal;font-weight:normal;font-size:4.23333px;line-height:1.25;font-family:sans-serif;fill:#000000;fill-opacity:1;stroke:none;stroke-width:0.264583"
       x="132.29167"
       y="66.145836"
       id="text981"><tspan
         sodipodi:role="line"
         id="tspan979"
         x="132.29167"
         y="66.145836"
         style="font-size:4.23333px;stroke-width:0.264583"></tspan></text>
    <path
       style="fill:none;stroke:#000000;stroke-width:0.264583px;stroke-linecap:butt;stroke-linejoin:miter;stroke-opacity:1"
       d="m 97.895827,67.468747 h 6.614593"
       id="path989" />
    <path
       style="fill:none;stroke:#000000;stroke-width:0.264583px;stroke-linecap:butt;stroke-linejoin:miter;stroke-opacity:1"
       d="m 97.895827,80.697914 h 6.614593"
       id="path991" />
    <path
       style="fill:none;stroke:#000000;stroke-width:0.264583px;stroke-linecap:butt;stroke-linejoin:miter;stroke-opacity:1"
       d="m 104.51042,71.437497 v -7.9375 h 7.9375 v 7.9375 z"
       id="path993" />
    <path
       style="fill:none;stroke:#000000;stroke-width:0.264583px;stroke-linecap:butt;stroke-linejoin:miter;stroke-opacity:1"
       d="m 105.83333,68.791664 c 2.64584,-6.614583 5.29167,0 5.29167,0"
       id="path1003" />
    <path
       style="fill:none;stroke:#000000;stroke-width:0.264583px;stroke-linecap:butt;stroke-linejoin:miter;stroke-opacity:1"
       d="m 108.47917,68.791664 2.64583,-3.96875"
       id="path1005" />
    <path
       style="fill:none;stroke:#000000;stroke-width:0.264583px;stroke-linecap:butt;stroke-linejoin:miter;stroke-opacity:1"
       d="m 104.51042,84.666665 v -7.9375 h 7.9375 v 7.9375 z"
       id="path993-3" />
    <path
       style="fill:none;stroke:#000000;stroke-width:0.264583px;stroke-linecap:butt;stroke-linejoin:miter;stroke-opacity:1"
       d="m 105.83333,82.020832 c 2.64584,-6.614583 5.29167,0 5.29167,0"
       id="path1003-6" />
    <path
       style="fill:none;stroke:#000000;stroke-width:0.264583px;stroke-linecap:butt;stroke-linejoin:miter;stroke-opacity:1"
       d="m 108.47917,82.020832 2.64583,-3.96875"
       id="path1005-9" />
    <path
       style="fill:none;stroke:#000000;stroke-width:0.264583px;stroke-linecap:butt;stroke-linejoin:miter;stroke-opacity:1"
       d="M 112.44792,80.43333 H 134.9375"
       id="path1042" />
    <path
       style="fill:none;stroke:#000000;stroke-width:0.264583px;stroke-linecap:butt;stroke-linejoin:miter;stroke-opacity:1"
       d="M 112.44792,80.962497 H 134.9375"
       id="path1044" />
    <path
       style="fill:none;stroke:#000000;stroke-width:0.264583px;stroke-linecap:butt;stroke-linejoin:miter;stroke-opacity:1"
       d="M 112.44792,67.204164 H 134.9375"
       id="path1046" />
    <path
       style="fill:none;stroke:#000000;stroke-width:0.264583px;stroke-linecap:butt;stroke-linejoin:miter;stroke-opacity:1"
       d="M 134.9375,67.73333 H 112.44792"
       id="path1048" />
    <circle
       style="fill:#000000;stroke:#000000;stroke-width:0.264583;stroke-miterlimit:4;stroke-dasharray:none;stroke-dashoffset:0"
       id="path1054"
       cx="123.03124"
       cy="80.697914"
       r="0.79374999" />
    <circle
       style="fill:none;stroke:#000000;stroke-width:0.264583;stroke-miterlimit:4;stroke-dasharray:none;stroke-dashoffset:0"
       id="path1073"
       cx="130.96873"
       cy="107.15625"
       r="2.6458333" />
    <path
       style="fill:none;stroke:#000000;stroke-width:0.264583;stroke-linecap:butt;stroke-linejoin:miter;stroke-miterlimit:4;stroke-dasharray:1.05833, 0.529166;stroke-dashoffset:0;stroke-opacity:1"
       d="m 122.76667,81.491664 7.9375,23.018756"
       id="path1075" />
    <path
       style="fill:none;stroke:#000000;stroke-width:0.264583;stroke-linecap:butt;stroke-linejoin:miter;stroke-miterlimit:4;stroke-dasharray:1.05833, 0.529166;stroke-dashoffset:0;stroke-opacity:1"
       d="m 123.29583,81.491664 7.9375,23.018756"
       id="path1077" />
    <path
       style="fill:none;stroke:#000000;stroke-width:0.264583px;stroke-linecap:butt;stroke-linejoin:miter;stroke-opacity:1"
       d="m 88.635416,107.15625 h 39.687504 5.29166"
       id="path1079" />
    <path
       style="fill:none;stroke:#000000;stroke-width:0.264583px;stroke-linecap:butt;stroke-linejoin:miter;stroke-opacity:1"
       d="m 130.96875,104.51042 v 5.29166"
       id="path1081" />
    <path
       style="fill:none;stroke:#000000;stroke-width:0.264583px;stroke-linecap:butt;stroke-linejoin:miter;stroke-opacity:1"
       d="m 133.61458,107.15625 h 7.9375"
       id="path1083" />
    <path
       style="fill:none;stroke:#000000;stroke-width:0.264583px;stroke-linecap:butt;stroke-linejoin:miter;stroke-opacity:1"
       d="m 141.55208,111.125 v -7.9375 h 7.9375 v 7.9375 z"
       id="path1085" />
    <text
       xml:space="preserve"
       style="font-style:normal;font-weight:normal;font-size:7.05556px;line-height:1.25;font-family:sans-serif;fill:#000000;fill-opacity:1;stroke:none;stroke-width:0.264583"
       x="181.23958"
       y="109.80208"
       id="text1089"><tspan
         sodipodi:role="line"
         id="tspan1087"
         x="181.23958"
         y="109.80208"
         style="font-size:7.05556px;stroke-width:0.264583" /></text>
    <text
       xml:space="preserve"
       style="font-style:normal;font-weight:normal;font-size:7.05556px;line-height:1.25;font-family:sans-serif;fill:#000000;fill-opacity:1;stroke:none;stroke-width:0.264583"
       x="142.87498"
       y="109.80208"
       id="text1093"><tspan
         sodipodi:role="line"
         id="tspan1091"
         x="142.87498"
         y="109.80208"
         style="font-size:7.05556px;stroke-width:0.264583">σ</tspan></text>
    <text
       xml:space="preserve"
       style="font-size:4.23333px;line-height:1.25;font-family:sans-serif;stroke-width:0.264583"
       x="147.31146"
       y="105.71312"
       id="text1097"><tspan
         sodipodi:role="line"
         id="tspan1095"
         x="147.31146"
         y="105.71312"
         style="font-size:2.82222px;stroke-width:0.264583">z</tspan></text>
    <path
       style="fill:none;stroke:#000000;stroke-width:0.264583px;stroke-linecap:butt;stroke-linejoin:miter;stroke-opacity:1"
       d="m 149.48958,107.15625 h 6.61458"
       id="path1099" />
    <circle
       style="fill:#000000;stroke:#000000;stroke-width:0.264583;stroke-miterlimit:4;stroke-dasharray:none;stroke-dashoffset:0"
       id="path1111"
       cx="130.96873"
       cy="67.46875"
       r="0.79374999" />
    <path
       style="fill:none;stroke:#000000;stroke-width:0.264583;stroke-linecap:butt;stroke-linejoin:miter;stroke-miterlimit:4;stroke-dasharray:1.05833, 0.529166;stroke-dashoffset:0;stroke-opacity:1"
       d="M 130.70417,68.262497 145.25625,103.1875"
       id="path1113" />
    <path
       style="fill:none;stroke:#000000;stroke-width:0.264583;stroke-linecap:butt;stroke-linejoin:miter;stroke-miterlimit:4;stroke-dasharray:1.05833, 0.529166;stroke-dashoffset:0;stroke-opacity:1"
       d="M 145.78542,103.1875 131.23333,68.262497"
       id="path1115" />
    <path
       style="fill:none;stroke:#000000;stroke-width:0.264583px;stroke-linecap:butt;stroke-linejoin:miter;stroke-opacity:1"
       d="m 134.9375,80.43333 h 21.16666"
       id="path1119" />
    <path
       style="fill:none;stroke:#000000;stroke-width:0.264583px;stroke-linecap:butt;stroke-linejoin:miter;stroke-opacity:1"
       d="M 156.10416,80.962497 H 134.9375"
       id="path1121" />
    <path
       style="fill:none;stroke:#000000;stroke-width:0.264583px;stroke-linecap:butt;stroke-linejoin:miter;stroke-opacity:1"
       d="m 134.9375,67.73333 h 21.16666"
       id="path1123" />
    <path
       style="fill:none;stroke:#000000;stroke-width:0.264583px;stroke-linecap:butt;stroke-linejoin:miter;stroke-opacity:1"
       d="M 156.10416,67.204164 H 134.9375"
       id="path1125" />
    <path
       style="fill:none;stroke:#000000;stroke-width:0.264583px;stroke-linecap:butt;stroke-linejoin:miter;stroke-opacity:1"
       d="m 89.958326,71.437497 v -7.9375 h 7.937501 v 7.9375 z"
       id="path993-6" />
    <path
       style="fill:none;stroke:#000000;stroke-width:0.264583px;stroke-linecap:butt;stroke-linejoin:miter;stroke-opacity:1"
       d="m 84.666666,67.468747 h 5.29166"
       id="path1144" />
    <text
       xml:space="preserve"
       style="font-size:4.23333px;line-height:1.25;font-family:sans-serif;stroke-width:0.264583"
       x="92.273438"
       y="68.980659"
       id="text1148"><tspan
         sodipodi:role="line"
         id="tspan1146"
         x="92.273438"
         y="68.980659"
         style="stroke-width:0.264583">H</tspan></text>
    <path
       style="fill:none;stroke:#000000;stroke-width:0.264583px;stroke-linecap:butt;stroke-linejoin:miter;stroke-opacity:1"
       d="M 97.895827,80.697914 H 84.666666"
       id="path1150" />
    <path
       style="fill:none;stroke:#000000;stroke-width:0.264583px;stroke-linecap:butt;stroke-linejoin:miter;stroke-opacity:1"
       d="m 83.343746,83.343747 v -15.875"
       id="path1154" />
    <path
       style="fill:none;stroke:#000000;stroke-width:0.264583px;stroke-linecap:butt;stroke-linejoin:miter;stroke-opacity:1"
       d="m 51.593748,97.89583 v -7.9375 h 7.9375 v 7.9375 z"
       id="path993-6-8" />
    <text
       xml:space="preserve"
       style="font-size:4.23333px;line-height:1.25;font-family:sans-serif;stroke-width:0.264583"
       x="53.908852"
       y="95.438995"
       id="text1148-3"><tspan
         sodipodi:role="line"
         id="tspan1146-2"
         x="53.908852"
         y="95.438995"
         style="stroke-width:0.264583">H</tspan></text>
    <path
       style="fill:none;stroke:#000000;stroke-width:0.264583px;stroke-linecap:butt;stroke-linejoin:miter;stroke-opacity:1"
       d="M 64.822916,93.92708 H 59.531248"
       id="path1181" />
    <path
       style="fill:none;stroke:#000000;stroke-width:0.264583px;stroke-linecap:butt;stroke-linejoin:miter;stroke-opacity:1"
       d="M 64.822916,107.15625 H 51.593748"
       id="path1183" />
    <circle
       style="fill:#000000;stroke:#000000;stroke-width:0.264583;stroke-miterlimit:4;stroke-dasharray:none;stroke-dashoffset:0"
       id="path1185"
       cx="66.145821"
       cy="93.927086"
       r="0.79374999" />
    <circle
       style="fill:none;stroke:#000000;stroke-width:0.264583;stroke-miterlimit:4;stroke-dasharray:none;stroke-dashoffset:0"
       id="path1187"
       cx="66.145821"
       cy="107.15625"
       r="2.6458333" />
    <path
       style="fill:none;stroke:#000000;stroke-width:0.264583px;stroke-linecap:butt;stroke-linejoin:miter;stroke-opacity:1"
       d="m 66.145836,109.80208 v -15.875"
       id="path1189" />
    <circle
       style="fill:none;stroke:#000000;stroke-width:0.264583;stroke-miterlimit:4;stroke-dasharray:none;stroke-dashoffset:0"
       id="path1191"
       cx="83.34375"
       cy="80.697914"
       r="2.6458333" />
    <circle
       style="fill:#000000;stroke:#000000;stroke-width:0.264583;stroke-miterlimit:4;stroke-dasharray:none;stroke-dashoffset:0"
       id="path1193"
       cx="83.34375"
       cy="67.46875"
       r="0.79374999" />
    <path
       style="fill:none;stroke:#000000;stroke-width:0.264583px;stroke-linecap:butt;stroke-linejoin:miter;stroke-opacity:1"
       d="M 51.593748,93.92708 H 44.979165"
       id="path1195" />
    <path
       style="fill:none;stroke:#000000;stroke-width:0.264583px;stroke-linecap:butt;stroke-linejoin:miter;stroke-opacity:1"
       d="M 51.593748,107.15625 H 44.979165"
       id="path1197" />
    <path
       style="fill:none;stroke:#000000;stroke-width:0.264583px;stroke-linecap:butt;stroke-linejoin:miter;stroke-opacity:1"
       d="M 84.666666,67.468747 H 44.979165"
       id="path1199" />
    <path
       style="fill:none;stroke:#000000;stroke-width:0.264583;stroke-linecap:butt;stroke-linejoin:miter;stroke-miterlimit:4;stroke-dasharray:0.264583, 0.529166;stroke-dashoffset:0;stroke-opacity:1"
       d="M 42.333332,87.312497 H 158.75"
       id="path1201" />
    <path
       style="fill:#000000;stroke:#000000;stroke-width:0.264583;stroke-miterlimit:4;stroke-dasharray:none;stroke-dashoffset:0"
       id="path1203"
       d="m 29.786059,64.772974 c -0.637402,0.298246 -0.16511,0.07122 -1.527252,0.866608 -0.153897,0.08987 -0.210454,0.122489 -0.340293,0.251357 -0.125519,0.124581 -0.201385,0.23537 -0.307811,0.376034 -0.291703,0.369371 -0.467072,0.796374 -0.645256,1.2261 -0.160991,0.349565 -0.285252,0.711499 -0.354041,1.090001 -0.0488,0.356002 -0.07032,0.714859 -0.08078,1.07379 -0.0038,0.252508 -0.0013,0.505029 -0.0013,0.757547 -0.0039,0.274498 0.01971,0.550577 0.07635,0.819275 0.05393,0.23713 0.126719,0.467593 0.165533,0.707993 0.07218,0.330319 0.103934,0.667311 0.12522,1.004163 0.02598,0.288819 0.0776,0.571597 0.140017,0.854215 0.03926,0.221969 0.06867,0.449305 0.04502,0.674267 -0.02985,0.275526 -0.07713,0.549671 -0.139446,0.819684 -0.06373,0.288049 -0.09218,0.583398 -0.177287,0.866275 -0.04853,0.121811 -0.04453,0.264374 -0.104563,0.382326 -0.08127,0.159684 -0.229092,0.295206 -0.351801,0.420687 -0.349448,0.323413 -0.746165,0.594815 -1.085416,0.928947 -0.257921,0.227954 -0.465407,0.506444 -0.745032,0.708874 -0.04207,0.02917 -0.08426,0.05816 -0.126193,0.08752 -0.08451,0.05918 -0.350102,0.218397 -0.260901,0.166544 1.871303,-1.087808 1.177285,-0.674153 0.74476,-0.450792 -0.100851,0.06543 -0.218495,0.100746 -0.322167,0.160409 -0.42817,0.24641 -0.853858,0.497105 -1.280425,0.746279 -0.02741,0.01601 -0.108955,0.06516 -0.08149,0.04926 0.372988,-0.215913 0.745371,-0.432866 1.118058,-0.649301 -0.677754,0.285173 -0.906876,0.350618 -1.690032,0.964692 -0.03863,0.03029 0.04237,0.08856 0.06356,0.132842 0.123476,0.153744 0.30916,0.213368 0.474496,0.306113 0.06843,0.03839 0.14433,0.09303 0.208706,0.137485 0.205221,0.127635 0.351541,0.319318 0.511738,0.495803 0.122936,0.162255 0.230056,0.33552 0.350078,0.50047 0.133708,0.217114 0.252667,0.442801 0.384228,0.661347 0.133128,0.232193 0.237403,0.481216 0.303515,0.740606 0.0658,0.220064 0.113723,0.443518 0.192158,0.659825 0.08206,0.222782 0.113877,0.4595 0.161129,0.69128 0.04799,0.336148 0.10078,0.671505 0.133969,1.009618 0.02223,0.338931 0.07945,0.674241 0.13807,1.008378 0.0629,0.368117 0.0755,0.741873 0.08479,1.114403 0.0096,0.415478 0.0095,0.831033 0.008,1.246587 0.01177,0.403202 -0.03291,0.804238 -0.06027,1.205926 -0.02487,0.456983 -0.02826,0.914757 -0.03278,1.372285 0.02048,0.436661 0.05314,0.87217 0.104794,1.306172 0.05787,0.355502 0.133995,0.708268 0.255812,1.047538 0.09317,0.294997 0.232908,0.569457 0.377285,0.841743 0.125482,0.227007 0.268952,0.44392 0.437886,0.641022 0.139583,0.177125 0.27873,0.355518 0.430255,0.522742 0.226171,0.218184 0.485883,0.397986 0.733446,0.590648 0.211061,0.142618 0.413004,0.301323 0.63052,0.434248 0.137891,0.06859 0.281639,0.122928 0.419344,0.191944 0,0 1.170691,-0.771154 1.170691,-0.771154 v 0 c -0.137099,-0.06656 -0.272701,-0.133981 -0.417336,-0.183585 -0.222168,-0.11593 -0.415636,-0.282683 -0.631507,-0.409718 -0.241057,-0.187341 -0.491683,-0.365368 -0.709435,-0.580197 -0.157237,-0.160168 -0.29455,-0.339473 -0.431181,-0.51717 -0.168241,-0.183414 -0.301617,-0.395327 -0.425336,-0.610484 -0.142751,-0.265935 -0.280258,-0.53277 -0.370925,-0.822023 -0.117626,-0.329261 -0.190921,-0.671817 -0.248089,-1.016408 -0.05172,-0.427979 -0.08408,-0.857895 -0.10024,-1.288745 0.003,-0.455748 0.0088,-0.911791 0.04019,-1.366634 0.02844,-0.404299 0.07124,-0.808127 0.05547,-1.214099 -0.0011,-0.417502 0.0019,-0.835086 -0.0055,-1.252519 -0.01302,-0.378637 -0.03005,-0.758608 -0.09171,-1.132975 -0.0567,-0.330951 -0.109939,-0.663069 -0.136358,-0.99804 -0.0351,-0.34345 -0.085,-0.685157 -0.130662,-1.027255 -0.0485,-0.238107 -0.08045,-0.481531 -0.168243,-0.709502 -0.0737,-0.213942 -0.123161,-0.433744 -0.187886,-0.650306 -0.07742,-0.268668 -0.187778,-0.528637 -0.328134,-0.770522 -0.132749,-0.222909 -0.246665,-0.455985 -0.381153,-0.677569 -0.122984,-0.169201 -0.236278,-0.344188 -0.361506,-0.511267 -0.167073,-0.184055 -0.319259,-0.385162 -0.529891,-0.522253 -0.07362,-0.05075 -0.143352,-0.10744 -0.220009,-0.153469 -0.136065,-0.0817 -0.299816,-0.116039 -0.416417,-0.229992 -8e-5,-0.0026 -1.62e-4,-0.0052 -2.41e-4,-0.0078 -0.382577,0.218728 -0.765154,0.437456 -1.147731,0.656182 -0.03427,0.01955 0.06663,-0.04268 0.102243,-0.05967 0.115353,-0.05504 0.241247,-0.06913 0.358024,-0.119677 0.42646,-0.244559 0.853657,-0.487836 1.279382,-0.733676 0.02736,-0.0158 0.107241,-0.06678 0.07977,-0.05118 -0.371734,0.211093 -0.741548,0.425551 -1.112668,0.637723 -0.03069,0.01754 0.05971,-0.03813 0.09138,-0.05384 0.03719,-0.01844 0.07649,-0.03227 0.114739,-0.0484 0.0412,-0.02106 0.0824,-0.0421 0.123595,-0.06315 0.09528,-0.05361 0.196672,-0.09583 0.291856,-0.1496 0.583121,-0.329391 1.18958,-0.629987 1.72084,-1.041456 0.258233,-0.225684 0.480134,-0.4884 0.735435,-0.717582 0.352362,-0.318979 0.734404,-0.604189 1.076299,-0.934667 0.27164,-0.305419 0.365511,-0.474287 0.442931,-0.871135 0.06791,-0.288459 0.109559,-0.581631 0.172807,-0.871043 0.05805,-0.277863 0.110818,-0.557871 0.135533,-0.840901 0.008,-0.23867 -0.01357,-0.477351 -0.06294,-0.711205 -0.06598,-0.273982 -0.117727,-0.54904 -0.137105,-0.830988 -0.02595,-0.341019 -0.06998,-0.680545 -0.128175,-1.017566 -0.04134,-0.241697 -0.109249,-0.475726 -0.166248,-0.713992 -0.05363,-0.26122 -0.06972,-0.52838 -0.06253,-0.794723 -0.0016,-0.250995 -0.0028,-0.502031 5.29e-4,-0.753012 0.0057,-0.3502 0.01902,-0.701765 0.08211,-1.047113 0.08197,-0.366966 0.208841,-0.720166 0.360905,-1.064032 0.17299,-0.422317 0.367805,-0.83125 0.656981,-1.189151 0.15376,-0.184351 0.301011,-0.344575 0.50129,-0.479841 0.0557,-0.03762 0.23055,-0.138205 0.171945,-0.105304 -2.501043,1.404051 -1.138899,0.647316 -0.861999,0.493636 0,0 1.10209,-0.862772 1.10209,-0.862772 z" />
    <text
       xml:space="preserve"
       style="font-size:4.23333px;line-height:1.25;font-family:sans-serif;stroke-width:0.264583"
       x="49.798363"
       y="80.792412"
       id="text1207"><tspan
         sodipodi:role="line"
         id="tspan1205"
         x="49.798363"
         y="80.792412"
         style="stroke-width:0.264583">Alice</tspan></text>
    <text
       xml:space="preserve"
       style="font-size:4.23333px;line-height:1.25;font-family:sans-serif;stroke-width:0.264583"
       x="13.134667"
       y="108.0067"
       id="text1211"><tspan
         sodipodi:role="line"
         id="tspan1209"
         x="13.134667"
         y="108.0067"
         style="stroke-width:0.264583">Bob</tspan></text>
    <text
       xml:space="preserve"
       style="font-size:4.23333px;line-height:1.25;font-family:sans-serif;stroke-width:0.264583"
       x="34.962791"
       y="94.966515"
       id="text1215"><tspan
         sodipodi:role="line"
         id="tspan1213"
         x="34.962791"
         y="94.966515"
         style="stroke-width:0.264583">|0⟩</tspan></text>
    <text
       xml:space="preserve"
       style="font-size:4.23333px;line-height:1.25;font-family:sans-serif;stroke-width:0.264583"
       x="34.962791"
       y="108.19568"
       id="text1215-5"><tspan
         sodipodi:role="line"
         id="tspan1213-1"
         x="34.962791"
         y="108.19568"
         style="stroke-width:0.264583">|0⟩</tspan></text>
    <text
       xml:space="preserve"
       style="font-size:4.23333px;line-height:1.25;font-family:sans-serif;stroke-width:0.264583"
       x="34.962791"
       y="68.508179"
       id="text1215-9"><tspan
         sodipodi:role="line"
         id="tspan1213-8"
         x="34.962791"
         y="68.508179"
         style="stroke-width:0.264583">|Ψ⟩</tspan></text>
    <text
       xml:space="preserve"
       style="font-size:4.23333px;line-height:1.25;font-family:sans-serif;stroke-width:0.264583"
       x="157.80504"
       y="108.47916"
       id="text1215-9-4"><tspan
         sodipodi:role="line"
         id="tspan1213-8-3"
         x="157.80504"
         y="108.47916"
         style="stroke-width:0.264583">|Ψ⟩</tspan></text>
    <text
       xml:space="preserve"
       style="font-size:4.23333px;line-height:1.25;font-family:sans-serif;stroke-width:0.264583"
       x="158.74998"
       y="68.791664"
       id="text1263"><tspan
         sodipodi:role="line"
         id="tspan1261"
         x="158.74998"
         y="68.791664"
         style="stroke-width:0.264583">x</tspan></text>
    <text
       xml:space="preserve"
       style="font-size:4.23333px;line-height:1.25;font-family:sans-serif;stroke-width:0.264583"
       x="158.74998"
       y="82.020836"
       id="text1267"><tspan
         sodipodi:role="line"
         id="tspan1265"
         x="158.74998"
         y="82.020836"
         style="stroke-width:0.264583">y</tspan></text>
    <text
       xml:space="preserve"
       style="font-size:4.23333px;line-height:1.25;font-family:sans-serif;stroke-width:0.264583"
       x="159.69493"
       y="89.202385"
       id="text1271"><tspan
         sodipodi:role="line"
         id="tspan1269"
         x="159.69493"
         y="89.202385"
         style="stroke-width:0.264583">distancia arbitraria</tspan></text>
    <text
       xml:space="preserve"
       style="font-size:4.23333px;line-height:1.25;font-family:sans-serif;stroke-width:0.264583"
       x="168.3884"
       y="75.784225"
       id="text1275"><tspan
         sodipodi:role="line"
         id="tspan1273"
         x="168.3884"
         y="75.784225"
         style="stroke-width:0.264583">∈ {0,1}</tspan></text>
    <path
       style="fill:#000000;stroke:#000000;stroke-width:0.264583;stroke-miterlimit:4;stroke-dasharray:none;stroke-dashoffset:0"
       id="path1281"
       d="m 162.58072,65.668855 c 0.65097,0.591307 1.13171,1.346483 1.54641,2.114896 0.38263,0.715246 0.50756,1.491621 0.56222,2.288895 -0.0228,0.776018 -0.30411,1.496055 -0.50753,2.234552 -0.16137,0.567288 -0.37074,1.136443 -0.37869,1.73179 0.0636,0.441913 0.38351,0.732224 0.73989,0.963843 0.11763,0.112734 0.78741,0.268941 0.49393,0.428223 -0.36116,0.16678 -0.59589,0.514167 -0.81541,0.831821 -0.32752,0.409609 -0.52183,0.87898 -0.62133,1.389038 -0.0327,0.62238 0.27827,1.128766 0.62268,1.616425 0.24499,0.340616 0.57332,0.609946 0.83066,0.938257 0.11805,0.29164 0.0279,0.59195 -0.0873,0.86882 -0.15599,0.402947 -0.46002,0.731391 -0.6977,1.089287 -0.31032,0.395817 -0.70593,0.698426 -1.09257,1.01309 -0.88259,0.511931 -2.48981,1.458153 1.47566,-0.854454 0,0 -2.17219,1.742422 -2.17219,1.742422 v 0 c 1.0778,-0.615458 2.25033,-1.201248 3.28381,-1.92963 0.3931,-0.323628 0.77271,-0.665938 1.06532,-1.086969 0.26023,-0.364419 0.53866,-0.728128 0.6727,-1.161722 0.10624,-0.377569 0.15652,-0.75528 -0.0398,-1.115325 -0.25377,-0.329292 -0.58394,-0.591804 -0.84224,-0.919358 -0.30982,-0.423167 -0.5966,-0.863206 -0.50043,-1.414695 0.12258,-0.474425 0.34817,-0.8968 0.65902,-1.277274 0.18242,-0.22548 0.15027,-0.198332 0.35147,-0.398761 0.12169,-0.12123 0.29112,-0.227695 0.38925,-0.370396 0.0308,-0.04486 0.0459,-0.09875 0.0688,-0.148124 0.0205,-0.507519 -0.31298,-0.559679 -0.69522,-0.762548 -0.28333,-0.149233 -0.56793,-0.358523 -0.59242,-0.702342 0.0376,-0.569407 0.23157,-1.113943 0.38096,-1.660824 0.21164,-0.76128 0.4764,-1.515517 0.4611,-2.318027 -0.0683,-0.834919 -0.21916,-1.639679 -0.63729,-2.379954 -0.4285,-0.788802 -0.9214,-1.555136 -1.53179,-2.216774 0,0 -2.392,1.465818 -2.392,1.465818 z" />
  </g>
</svg>
